<svg version="1.0" xmlns="http://www.w3.org/2000/svg" width="2656" height="2656" viewBox="0 0 1992 1992"><path d="M944.5 2.1C714.9 14.4 501.5 102.6 330 256c-30.4 27.2-73 71.4-100.5 104.4-68.9 82.8-125.2 178.8-163.9 279.4C2 805.4-15.9 986.8 14 1163.5c32.9 194.9 124.3 376.3 261.7 519.7 167.6 175 387.7 281.3 628.8 303.7 64.2 6 137.5 5.3 202.6-1.9 148.9-16.4 291.3-66.2 418.9-146.3 117.8-73.9 221.6-174.8 298.9-290.7 126.8-190.1 183.6-414.2 163-643-22.8-253.6-142.5-488.1-335.5-657.5-77.7-68.2-169.8-126.2-263.9-166.3C1278 34.1 1166.7 8.5 1044.5 2c-21.8-1.1-77.8-1.1-100 .1zm437 403.9c27.9 5.9 61.1 21.9 101.5 49 19 12.7 36.9 26.6 88.4 68.4 64.4 52.3 81.3 65 108.1 81.3 19.7 12 27.9 16.2 80.5 40.8 67.1 31.4 101.5 48.4 100.4 49.5-1.2 1.2-29.2-4.7-47.6-10-30-8.7-53.7-18.7-99.3-41.9-74.6-38-100.2-53.9-167.5-104-81.6-60.7-108.6-76.7-156.9-92.8-18.8-6.3-29-7.6-42.6-5.4-16.6 2.7-38.5 12-51.9 22-12.5 9.4-35.7 31.3-62.1 58.7-52.6 54.6-65.9 66.8-88.5 81.7-26.6 17.4-56.8 28-91.5 31.8-17.1 2-54.6 1.7-69-.5-24.9-3.8-62.2-14.5-88.5-25.6-50-21-107.3-55.6-172.5-104.4-15.6-11.6-22.4-14.8-33.2-15.4-10.9-.6-16.9 1.4-28.6 9.4-61.2 42.1-112 73.7-162.2 100.9-18.6 10-189.7 95.8-206.1 103.3-21.4 9.8-63.8 27.3-65.3 27-2-.4 8.7-8.5 28.1-21.2 20.6-13.5 36.5-22.9 109.3-64.6 125.9-72.2 160.2-92.4 192.5-113.7 34.8-23 60.4-41.6 93.4-68.1 10-8 21.3-16.6 25.1-19.1 6.4-4.2 7.5-4.6 13.1-4.6 5.8 0 6.3.2 14.2 6 4.5 3.3 19.7 14.5 33.9 24.9 46.7 34.4 73.4 51.1 113.8 71.1 57.9 28.6 107.2 44.9 150.9 50 16.3 1.9 47.9 2.2 58.1.5 29.5-4.7 56.3-17.6 85.8-41.3 11-8.9 29.8-27.3 81.3-79.7 21.5-22 36-35.9 41.9-40.3 16.9-12.6 38.6-21.8 59-25.2 12.9-2.1 40.6-1.3 54 1.5zM1853 824.7c0 .4-2.7 9.1-6 19.4-6.7 20.9-6.3 20.3-20.3 29.7-23.9 16.2-58.1 27.3-110.7 36.1-41.4 7-97.3 11.4-177.5 14-37.4 1.2-180.9 1.3-227.3.1-39.1-1-221.4-6.4-322.2-9.5-150.2-4.6-236.3-4.6-295 .1-200.9 15.9-374.4 81.2-465 175-33.6 34.8-53 68.8-60.6 106.3-15.6 77 18.2 149.7 99.6 214.1 91.2 72.1 234.4 124.3 395 144 24.4 3 44.9 4.7 79.7 6.6l31.2 1.8.6 2.5c.4 1.4.3 6.9-.1 12.3l-.7 9.8h-4.6c-15.8 0-67-3.8-97.1-7.1-228.1-25-417.7-113.3-495.7-230.7-17.4-26.3-28.8-55.1-34.4-86.9-3.2-18.1-3.2-44.5 0-62.7 11.3-64.3 51.7-121.7 121.7-172.8 52.4-38.1 123-71.8 199.4-94.9 84.2-25.6 171.2-40.1 268.9-45 31.1-1.5 213.2-.6 280.1 1.5 77.8 2.4 205.8 3.6 426 3.9l203.5.2 22.5-2.3c43.1-4.4 67.6-8.7 93.8-16.3 33.8-9.9 65.2-25.9 87.2-44.3 6.3-5.3 8-6.4 8-4.9zM688.4 1026.5c24.9 6.5 42.6 29 42.6 54.2.1 13.1-16.8 279.9-18.1 286.1-2.2 10.8-12.5 19.2-23.6 19.2-12.1 0-9.6 2-59.1-47.9l-45.3-45.6-44.3 44.7c-48.2 48.8-48.2 48.7-59.2 48.8-11 0-21.7-7.8-24.3-17.8-.6-2-4.2-53.7-8.1-114.7-3.9-61.1-8-125-9.1-142-2.5-36.7-2.1-41.3 4.1-54.4 6.9-14.3 21.3-26.5 36.1-30.5 8.3-2.2 199.8-2.3 208.3-.1zm189.3 37c4.1 2.5 7.3 6.8 7.3 10 0 1-1 1.5-3.2 1.5-2.6 0-3.9-.8-6.1-3.5-6.7-8.5-21.2-5.5-21.2 4.4 0 5.8 2.4 7.7 13.8 11.3 12.6 3.9 16.6 7.1 17.4 14.1.7 5.8-.9 9.8-5.3 13.7-9 7.9-27.1 5.4-31.8-4.4-2.5-5.3-2.1-6.6 1.9-6.6 3 0 3.7.5 4.9 3.4 3.1 7.4 15.2 9 20.8 2.7 3.7-4.1 3.7-8.3 0-12-1.9-1.9-5.9-3.8-12.9-6-7.9-2.4-10.7-3.8-12.7-6.1-6.4-7.6-3-20.1 6.4-23.9 1.4-.5 5.6-1 9.4-1 5.7-.1 7.7.4 11.3 2.4zm106.3.5v3h-16v52h-7v-52h-16v-6h39v3zm67.2 18.2c.3 23.1.8 25.2 6.1 29.2 4 2.9 13.4 2.9 17.4 0 5.7-4.2 6.3-6.8 6.3-29.7V1061h7.1l-.3 22.2c-.3 21.6-.4 22.4-2.8 26.6-3.8 6.8-9.6 9.7-19 9.6-8.5 0-12.1-1.4-16.8-6.8-4.3-4.9-5.2-10.7-5.2-32.6v-19h6.9l.3 21.2zm131.6-18.8c11.1 4 17.4 13.4 17.5 25.8.1 11.1-3.3 19.1-10.4 24.4-5.5 4-12 5.4-25.6 5.4H1152v-58.3l13.3.6c8.5.3 14.8 1 17.5 2.1zm86.2 26.6v29h-7v-58h7v29zm103.9-25.9c6.8 3.4 10.8 7.9 13.7 15.5 2.1 5.5 1.6 19.3-.9 24.1-9 17.1-31.4 21.5-45.5 8.8-6.8-6.1-9.7-12.7-9.6-22.5 0-9.2 3.3-17.1 9.6-22.4 5.4-4.6 10.7-6.4 19.4-6.5 6-.1 8 .4 13.3 3zm20.5 96.4c21.2 3.7 39.7 14.9 51 30.9 3.9 5.4 9.6 15.6 9.6 17.1 0 .3-7.4.5-16.4.5h-16.4l-2.1-3.3c-3.3-5.4-12.7-13.6-18.5-16.3-22.7-10.4-49.9-5-66.3 13-10.1 11.1-14.7 24.3-14.6 42.6.1 18.9 5.5 32.9 17 44.4 19.1 19.3 55.6 20.8 76 3.2 8-6.9 12.5-15.5 17-31.9.4-1.6-1.6-1.7-31.1-1.7H1367v-22h92v12.3c0 7.8-.6 14.4-1.5 18.1-7.6 29.2-29.6 51.5-58.8 59.6-15.5 4.3-35.4 3.5-51.4-1.9-22.3-7.7-41.9-26.3-50.1-47.8-4.5-11.6-5.6-18.4-5.6-32.8 0-14.4 1.1-21.2 5.6-32.8 7.9-20.7 26.8-39.2 48.1-47.2 14.1-5.3 32.1-6.8 48.1-4zm185.1 0c32.8 5.7 57.9 28.7 66.6 61 3.1 11.4 3.1 34.5.1 46-4.5 16.5-15.1 33.5-27.5 43.6-7.3 5.9-23.4 14-32.7 16.4-9 2.3-27.2 3.1-36.6 1.6-33.1-5.4-58.3-27.5-68-59.6-2.5-8.2-2.7-10.5-2.7-25s.2-16.8 2.6-24.8c1.5-4.9 3.9-11.2 5.4-14 17.2-34.1 53.9-52 92.8-45.2zm-656.9 2c14.8 2.6 27.9 9.9 35 19.7 10.6 14.3 12.1 35.2 3.7 51.8-5.6 11.4-14.1 18.6-27.2 23.4l-5.7 2.1 20.2 34c11.2 18.6 20.1 34.1 19.9 34.5-.2.3-7.4.5-16.1.5h-15.8l-19-33.2-19.1-33.3H876v66.8l-13.5.1-13.5.2V1161h31.9c24.1 0 34 .4 40.7 1.5zm171.4 9.5c0 8.1-.3 11-1.2 11-.7 0-15.2.1-32.3.3l-31 .2-.3 24.2-.2 24.3h58v23h-58v51h65v11c0 9.8-.2 11-1.7 11-1 0-21.6 0-45.8.1h-44l-.3-83.5-.2-83.6h92v11zm102.7 51.3 41.3 62.2V1161h27v167h-27.6l-40.3-61c-22.2-33.6-40.7-61.3-41.2-61.6-.5-.3-.9 25.7-.9 61v61.6h-27v-167h27.5l41.2 62.3z"/><path d="M1159 1090.4v23.6h5.9c14 0 21.4-3.5 25.9-12.1 2-3.7 2.3-5.6 2-12.4-.4-10.2-2.7-14.9-9.3-19-4.2-2.6-5.8-3-14.6-3.3l-9.9-.4v23.6zM1348.9 1069.3c-10.8 5.7-14.7 21.5-8.4 33.7 3.2 6.2 11.4 11 18.9 11 8.6 0 18-6.7 20.4-14.6 1.8-6.1 1.5-15.2-.7-19.9-2.2-4.7-7.4-9.9-11.4-11.4-5-1.9-13.9-1.3-18.8 1.2zM1552.4 1184c-22 3.2-38.8 19-45 42-2.3 8.8-2.3 28.1 0 36.8 5.4 20.1 18 34.4 35.6 40.3 8.8 3 24.1 3.7 33.3 1.5 20.9-4.9 36.1-20.4 41.4-42.4 2.1-8.9 2.1-26.6-.1-35.6-7.1-29.8-33.8-47.2-65.2-42.6zM876.2 1211.7l.3 27.8 19-.1c15.6 0 20-.4 24.4-1.8 11-3.7 17.2-12.9 17.2-25.5 0-9.7-1.7-14.7-7.1-20.2-6.7-6.9-10.9-7.9-34.7-7.9H876l.2 27.7z"/></svg>