<?xml version="1.0" standalone="no"?>
<!DOCTYPE svg PUBLIC "-//W3C//DTD SVG 20010904//EN"
 "http://www.w3.org/TR/2001/REC-SVG-20010904/DTD/svg10.dtd">
<svg version="1.0" xmlns="http://www.w3.org/2000/svg" width="1992.000000pt" height="1992.000000pt" viewBox="0 0 1992.000000 1992.000000" preserveAspectRatio="xMidYMid meet">
<metadata>
Created by potrace 1.14, written by Peter Selinger 2001-2017
</metadata>
<g transform="translate(0.000000,1992.000000) scale(0.100000,-0.100000)" fill="#000000" stroke="none">
<path d="M9445 19899 c-2296 -123 -4430 -1005 -6145 -2539 -304 -272 -730
-714 -1005 -1044 -689 -828 -1252 -1788 -1639 -2794 -636 -1656 -815 -3470
-516 -5237 329 -1949 1243 -3763 2617 -5197 1676 -1750 3877 -2813 6288 -3037
642 -60 1375 -53 2026 19 1489 164 2913 662 4189 1463 1178 739 2216 1748
2989 2907 1268 1901 1836 4142 1630 6430 -228 2536 -1425 4881 -3355 6575
-777 682 -1698 1262 -2639 1663 -1105 471 -2218 727 -3440 792 -218 11 -778
11 -1000 -1z m4370 -4039 c279 -59 611 -219 1015 -490 190 -127 369 -266 884
-684 644 -523 813 -650 1081 -813 197 -120 279 -162 805 -408 671 -314 1015
-484 1004 -495 -12 -12 -292 47 -476 100 -300 87 -537 187 -993 419 -746 380
-1002 539 -1675 1040 -816 607 -1086 767 -1569 928 -188 63 -290 76 -426 54
-166 -27 -385 -120 -519 -220 -125 -94 -357 -313 -621 -587 -526 -546 -659
-668 -885 -817 -266 -174 -568 -280 -915 -318 -171 -20 -546 -17 -690 5 -249
38 -622 145 -885 256 -500 210 -1073 556 -1725 1044 -156 116 -224 148 -332
154 -109 6 -169 -14 -286 -94 -612 -421 -1120 -737 -1622 -1009 -186 -100
-1897 -958 -2061 -1033 -214 -98 -638 -273 -653 -270 -20 4 87 85 281 212 206
135 365 229 1093 646 1259 722 1602 924 1925 1137 348 230 604 416 934 681
100 80 213 166 251 191 64 42 75 46 131 46 58 0 63 -2 142 -60 45 -33 197
-145 339 -249 467 -344 734 -511 1138 -711 579 -286 1072 -449 1509 -500 163
-19 479 -22 581 -5 295 47 563 176 858 413 110 89 298 273 813 797 215 220
360 359 419 403 169 126 386 218 590 252 129 21 406 13 540 -15z m4715 -4187
c0 -4 -27 -91 -60 -194 -67 -209 -63 -203 -203 -297 -239 -162 -581 -273
-1107 -361 -414 -70 -973 -114 -1775 -140 -374 -12 -1809 -13 -2273 -1 -391
10 -2214 64 -3222 95 -1502 46 -2363 46 -2950 -1 -2009 -159 -3744 -812 -4650
-1750 -336 -348 -530 -688 -606 -1063 -156 -770 182 -1497 996 -2141 912 -721
2344 -1243 3950 -1440 244 -30 449 -47 797 -66 l312 -18 6 -25 c4 -14 3 -69
-1 -123 l-7 -98 -46 0 c-158 0 -670 38 -971 71 -2281 250 -4177 1133 -4957
2307 -174 263 -288 551 -344 869 -32 181 -32 445 0 627 113 643 517 1217 1217
1728 524 381 1230 718 1994 949 842 256 1712 401 2689 450 311 15 2132 6 2801
-15 778 -24 2058 -36 4260 -39 l2035 -2 225 23 c431 44 676 87 938 163 338 99
652 259 872 443 63 53 80 64 80 49z m-11646 -2018 c249 -65 426 -290 426 -542
1 -131 -168 -2799 -181 -2861 -22 -108 -125 -192 -236 -192 -121 0 -96 -20
-591 479 l-453 456 -443 -447 c-482 -488 -482 -487 -592 -488 -110 0 -217 78
-243 178 -6 20 -42 537 -81 1147 -39 611 -80 1250 -91 1420 -25 367 -21 413
41 544 69 143 213 265 361 305 83 22 1998 23 2083 1z m1893 -370 c41 -25 73
-68 73 -100 0 -10 -10 -15 -32 -15 -26 0 -39 8 -61 35 -67 85 -212 55 -212
-44 0 -58 24 -77 138 -113 126 -39 166 -71 174 -141 7 -58 -9 -98 -53 -137
-90 -79 -271 -54 -318 44 -25 53 -21 66 19 66 30 0 37 -5 49 -34 31 -74 152
-90 208 -27 37 41 37 83 0 120 -19 19 -59 38 -129 60 -79 24 -107 38 -127 61
-64 76 -30 201 64 239 14 5 56 10 94 10 57 1 77 -4 113 -24z m1063 -5 l0 -30
-80 0 -80 0 0 -260 0 -260 -35 0 -35 0 0 260 0 260 -80 0 -80 0 0 30 0 30 195
0 195 0 0 -30z m672 -182 c3 -231 8 -252 61 -292 40 -29 134 -29 174 0 57 42
63 68 63 297 l0 207 36 0 35 0 -3 -222 c-3 -216 -4 -224 -28 -266 -38 -68 -96
-97 -190 -96 -85 0 -121 14 -168 68 -43 49 -52 107 -52 326 l0 190 34 0 35 0
3 -212z m1316 188 c111 -40 174 -134 175 -258 1 -111 -33 -191 -104 -244 -55
-40 -120 -54 -256 -54 l-123 0 0 291 0 292 133 -6 c85 -3 148 -10 175 -21z
m862 -266 l0 -290 -35 0 -35 0 0 290 0 290 35 0 35 0 0 -290z m1039 259 c68
-34 108 -79 137 -155 21 -55 16 -193 -9 -241 -90 -171 -314 -215 -455 -88 -68
61 -97 127 -96 225 0 92 33 171 96 224 54 46 107 64 194 65 60 1 80 -4 133
-30z m205 -964 c212 -37 397 -149 510 -309 39 -54 96 -156 96 -171 0 -3 -74
-5 -164 -5 l-164 0 -21 33 c-33 54 -127 136 -185 163 -227 104 -499 50 -663
-130 -101 -111 -147 -243 -146 -426 1 -189 55 -329 170 -444 191 -193 556
-208 760 -32 80 69 125 155 170 319 4 16 -16 17 -311 17 l-316 0 0 110 0 110
460 0 460 0 0 -123 c0 -78 -6 -144 -15 -181 -76 -292 -296 -515 -588 -596
-155 -43 -354 -35 -514 19 -223 77 -419 263 -501 478 -45 116 -56 184 -56 328
0 144 11 212 56 328 79 207 268 392 481 472 141 53 321 68 481 40z m1851 0
c328 -57 579 -287 666 -610 31 -114 31 -345 1 -460 -45 -165 -151 -335 -275
-436 -73 -59 -234 -140 -327 -164 -90 -23 -272 -31 -366 -16 -331 54 -583 275
-680 596 -25 82 -27 105 -27 250 0 145 2 168 26 248 15 49 39 112 54 140 172
341 539 520 928 452z m-6569 -20 c148 -26 279 -99 350 -197 106 -143 121 -352
37 -518 -56 -114 -141 -186 -272 -234 l-57 -21 202 -340 c112 -186 201 -341
199 -345 -2 -3 -74 -5 -161 -5 l-158 0 -190 332 -191 333 -107 0 -108 0 0
-334 0 -334 -135 -1 -135 -2 0 841 0 840 319 0 c241 0 340 -4 407 -15z m1714
-95 c0 -81 -3 -110 -12 -110 -7 0 -152 -1 -323 -3 l-310 -2 -3 -242 -2 -243
290 0 290 0 0 -115 0 -115 -290 0 -290 0 0 -255 0 -255 325 0 325 0 0 -110 c0
-98 -2 -110 -17 -110 -10 0 -216 0 -458 -1 l-440 0 -3 835 -2 836 460 0 460 0
0 -110z m1027 -513 l413 -622 0 623 0 622 135 0 135 0 0 -835 0 -835 -138 0
-138 0 -403 610 c-222 336 -407 613 -412 616 -5 3 -9 -257 -9 -610 l0 -616
-135 0 -135 0 0 835 0 835 138 0 137 0 412 -623z"></path>
<path d="M11590 9016 l0 -236 59 0 c140 0 214 35 259 121 20 37 23 56 20 124
-4 102 -27 149 -93 190 -42 26 -58 30 -146 33 l-99 4 0 -236z"></path>
<path d="M13489 9227 c-108 -57 -147 -215 -84 -337 32 -62 114 -110 189 -110
86 0 180 67 204 146 18 61 15 152 -7 199 -22 47 -74 99 -114 114 -50 19 -139
13 -188 -12z"></path>
<path d="M15524 8080 c-220 -32 -388 -190 -450 -420 -23 -88 -23 -281 0 -368
54 -201 180 -344 356 -403 88 -30 241 -37 333 -15 209 49 361 204 414 424 21
89 21 266 -1 356 -71 298 -338 472 -652 426z"></path>
<path d="M8762 7803 l3 -278 190 1 c156 0 200 4 244 18 110 37 172 129 172
255 0 97 -17 147 -71 202 -67 69 -109 79 -347 79 l-193 0 2 -277z"></path>
</g>
</svg>
